<svg width="400" height="400" viewBox="0 0 400 400" fill="none" xmlns="http://www.w3.org/2000/svg">
<rect x="0.818221" y="199.944" width="281.764" height="281.764" transform="rotate(-45 0.818221 199.944)" stroke="#1B1B1B"/>
<rect x="50.8977" y="200.037" width="211.073" height="211.073" transform="rotate(-45 50.8977 200.037)" stroke="#1B1B1B" stroke-dasharray="4 4"/>
<path d="M200.056 50.7864V0.949219" stroke="url(#paint0_linear_108_205)"/>
<path d="M200.056 399.647V349.81" stroke="url(#paint1_linear_108_205)"/>
<path d="M399.758 199.944H349.921" stroke="url(#paint2_linear_108_205)"/>
<path d="M49.8371 199.944H0" stroke="url(#paint3_linear_108_205)"/>
<circle cx="200" cy="200" r="132.833" stroke="#1B1B1B" stroke-dasharray="4 4"/>
<path d="M279.958 193.933C279.977 195.276 279.989 196.622 279.995 197.972L279.495 197.975C279.498 198.649 279.5 199.324 279.5 200C279.5 200.676 279.498 201.351 279.495 202.025L279.995 202.027C279.989 203.377 279.977 204.724 279.958 206.067L279.459 206.06C279.44 207.403 279.416 208.743 279.385 210.079L279.885 210.091C279.854 211.443 279.817 212.792 279.774 214.137L279.274 214.121C279.231 215.465 279.182 216.804 279.127 218.139L279.626 218.16C279.57 219.511 279.508 220.858 279.44 222.2L278.941 222.175C278.872 223.52 278.798 224.861 278.717 226.197L279.217 226.227C279.135 227.574 279.048 228.916 278.955 230.253L278.456 230.218C278.362 231.565 278.262 232.906 278.155 234.243L278.654 234.282C278.547 235.624 278.434 236.961 278.315 238.292L277.817 238.248C277.697 239.595 277.57 240.937 277.437 242.274L277.935 242.323C277.802 243.662 277.663 244.994 277.518 246.321L277.02 246.267C276.873 247.613 276.72 248.953 276.56 250.287L277.056 250.347C276.896 251.684 276.73 253.016 276.557 254.341L276.061 254.277C275.887 255.617 275.706 256.952 275.519 258.279L276.014 258.349C275.826 259.685 275.631 261.015 275.43 262.338L274.936 262.263C274.733 263.598 274.524 264.926 274.309 266.246L274.803 266.327C274.585 267.661 274.361 268.988 274.131 270.307L273.639 270.221C273.407 271.55 273.169 272.871 272.925 274.184L273.416 274.275C273.169 275.606 272.914 276.929 272.654 278.244L272.163 278.147C271.902 279.469 271.633 280.783 271.358 282.088L271.848 282.191C271.568 283.517 271.283 284.835 270.99 286.143L270.502 286.034C270.209 287.349 269.909 288.655 269.602 289.952L270.088 290.067C269.776 291.387 269.457 292.698 269.132 293.998L268.647 293.877C268.319 295.185 267.985 296.482 267.645 297.769L268.128 297.897C267.781 299.209 267.428 300.51 267.067 301.801L266.585 301.666C266.222 302.966 265.853 304.254 265.476 305.531L265.956 305.672C265.572 306.974 265.181 308.264 264.784 309.541L264.307 309.393C263.905 310.683 263.496 311.961 263.081 313.227L263.556 313.383C263.134 314.671 262.704 315.945 262.268 317.206L261.795 317.043C261.352 318.323 260.901 319.59 260.444 320.842L260.913 321.014C260.45 322.284 259.979 323.539 259.5 324.78L259.034 324.6C258.545 325.869 258.048 327.122 257.545 328.359L258.008 328.547C257.499 329.798 256.982 331.031 256.459 332.248L256 332.051C255.461 333.302 254.915 334.536 254.361 335.752L254.817 335.959C254.254 337.194 253.684 338.411 253.106 339.608L252.656 339.391C252.067 340.61 251.471 341.809 250.868 342.988L251.313 343.216C250.69 344.431 250.06 345.626 249.421 346.797L248.982 346.558C248.335 347.745 247.681 348.91 247.018 350.05L247.45 350.301C246.765 351.481 246.072 352.636 245.37 353.765L244.945 353.501C244.226 354.658 243.499 355.788 242.764 356.89L243.18 357.168C242.425 358.299 241.661 359.402 240.889 360.475L240.483 360.183C239.691 361.285 238.89 362.355 238.081 363.393L238.475 363.701C237.631 364.782 236.778 365.83 235.917 366.842L235.536 366.518C234.654 367.553 233.763 368.551 232.864 369.511L233.228 369.853C232.295 370.849 231.352 371.804 230.399 372.717L230.053 372.357C229.076 373.294 228.089 374.187 227.094 375.034L227.418 375.415C226.373 376.304 225.318 377.144 224.254 377.933L223.956 377.532C222.865 378.341 221.764 379.096 220.655 379.796L220.921 380.219C219.765 380.948 218.598 381.618 217.421 382.228L217.191 381.784C215.993 382.404 214.787 382.961 213.571 383.453L213.758 383.916C212.499 384.426 211.229 384.867 209.95 385.237L209.811 384.757C208.528 385.128 207.237 385.427 205.938 385.653L206.023 386.145C204.698 386.375 203.363 386.53 202.021 386.608L201.992 386.109C201.33 386.147 200.666 386.166 200 386.166C199.334 386.166 198.67 386.147 198.008 386.109L197.979 386.608C196.637 386.53 195.302 386.375 193.977 386.145L194.062 385.653C192.763 385.427 191.472 385.128 190.189 384.757L190.05 385.237C188.771 384.867 187.501 384.426 186.242 383.916L186.429 383.453C185.213 382.961 184.007 382.404 182.809 381.784L182.579 382.228C181.402 381.618 180.235 380.948 179.079 380.219L179.346 379.796C178.236 379.096 177.135 378.341 176.044 377.532L175.746 377.934C174.682 377.144 173.627 376.304 172.582 375.415L172.906 375.035C171.911 374.187 170.924 373.294 169.947 372.357L169.601 372.717C168.648 371.804 167.705 370.849 166.772 369.853L167.136 369.511C166.237 368.551 165.346 367.553 164.464 366.518L164.083 366.842C163.222 365.83 162.369 364.782 161.525 363.701L161.919 363.393C161.11 362.355 160.309 361.285 159.516 360.183L159.111 360.475C158.339 359.402 157.575 358.299 156.82 357.168L157.236 356.89C156.501 355.788 155.773 354.658 155.055 353.501L154.63 353.765C153.928 352.636 153.235 351.481 152.549 350.301L152.982 350.05C152.319 348.91 151.665 347.745 151.018 346.558L150.579 346.797C149.94 345.626 149.31 344.432 148.687 343.216L149.132 342.988C148.529 341.809 147.933 340.61 147.344 339.391L146.894 339.608C146.316 338.411 145.746 337.194 145.183 335.959L145.638 335.752C145.085 334.536 144.539 333.302 144 332.051L143.541 332.248C143.018 331.031 142.501 329.798 141.992 328.547L142.455 328.359C141.952 327.122 141.455 325.869 140.966 324.6L140.499 324.78C140.021 323.539 139.55 322.284 139.086 321.014L139.556 320.842C139.099 319.59 138.648 318.323 138.205 317.043L137.732 317.206C137.296 315.945 136.866 314.671 136.444 313.383L136.919 313.227C136.503 311.961 136.095 310.683 135.693 309.392L135.216 309.541C134.819 308.264 134.428 306.974 134.044 305.672L134.524 305.531C134.147 304.254 133.778 302.966 133.414 301.666L132.933 301.801C132.572 300.51 132.219 299.209 131.871 297.897L132.355 297.769C132.014 296.482 131.681 295.184 131.353 293.877L130.868 293.998C130.543 292.698 130.224 291.387 129.911 290.067L130.398 289.952C130.091 288.655 129.791 287.349 129.498 286.034L129.01 286.143C128.717 284.835 128.431 283.517 128.152 282.191L128.642 282.088C128.367 280.783 128.098 279.469 127.836 278.147L127.346 278.244C127.086 276.929 126.831 275.606 126.584 274.275L127.075 274.184C126.831 272.871 126.593 271.55 126.361 270.221L125.869 270.307C125.639 268.988 125.415 267.661 125.197 266.327L125.691 266.246C125.476 264.926 125.267 263.598 125.064 262.263L124.57 262.338C124.369 261.015 124.174 259.685 123.986 258.349L124.481 258.279C124.294 256.952 124.113 255.617 123.939 254.277L123.443 254.341C123.27 253.016 123.104 251.684 122.944 250.347L123.44 250.287C123.28 248.953 123.127 247.613 122.979 246.267L122.482 246.321C122.337 244.994 122.198 243.662 122.065 242.323L122.563 242.274C122.43 240.937 122.303 239.595 122.183 238.248L121.685 238.292C121.566 236.961 121.453 235.624 121.346 234.282L121.845 234.243C121.738 232.906 121.638 231.565 121.544 230.218L121.045 230.253C120.952 228.916 120.865 227.574 120.783 226.227L121.283 226.197C121.202 224.861 121.128 223.52 121.059 222.175L120.56 222.2C120.492 220.858 120.43 219.511 120.374 218.16L120.873 218.139C120.818 216.804 120.769 215.465 120.726 214.121L120.226 214.137C120.183 212.792 120.146 211.443 120.115 210.091L120.615 210.079C120.584 208.743 120.56 207.403 120.541 206.06L120.041 206.067C120.023 204.724 120.011 203.377 120.005 202.027L120.505 202.025C120.502 201.351 120.5 200.676 120.5 200C120.5 199.324 120.502 198.649 120.505 197.975L120.005 197.972C120.011 196.623 120.023 195.276 120.041 193.933L120.541 193.94C120.56 192.596 120.584 191.257 120.615 189.92L120.115 189.909C120.146 188.556 120.183 187.207 120.226 185.862L120.726 185.879C120.769 184.535 120.818 183.196 120.873 181.86L120.374 181.84C120.43 180.489 120.492 179.142 120.56 177.799L121.059 177.825C121.128 176.48 121.202 175.139 121.283 173.803L120.783 173.773C120.865 172.426 120.952 171.084 121.045 169.747L121.544 169.782C121.638 168.435 121.738 167.093 121.845 165.757L121.346 165.717C121.453 164.375 121.566 163.039 121.685 161.707L122.183 161.752C122.303 160.404 122.43 159.062 122.563 157.726L122.065 157.676C122.198 156.338 122.337 155.005 122.482 153.678L122.979 153.733C123.127 152.387 123.28 151.046 123.44 149.712L122.944 149.653C123.104 148.315 123.27 146.984 123.443 145.658L123.939 145.723C124.113 144.382 124.294 143.048 124.481 141.72L123.986 141.651C124.174 140.314 124.369 138.985 124.57 137.662L125.064 137.737C125.267 136.402 125.476 135.074 125.691 133.753L125.197 133.673C125.415 132.339 125.639 131.012 125.869 129.692L126.361 129.778C126.593 128.45 126.831 127.129 127.075 125.816L126.584 125.724C126.831 124.393 127.086 123.07 127.346 121.755L127.836 121.853C128.098 120.531 128.367 119.217 128.642 117.912L128.152 117.809C128.431 116.483 128.717 115.165 129.01 113.856L129.498 113.965C129.791 112.65 130.091 111.344 130.398 110.048L129.911 109.933C130.224 108.613 130.543 107.302 130.868 106.001L131.353 106.123C131.681 104.815 132.014 103.518 132.355 102.231L131.871 102.103C132.219 100.791 132.572 99.4892 132.933 98.1988L133.414 98.3333C133.778 97.0337 134.147 95.7454 134.524 94.4686L134.044 94.3272C134.428 93.0257 134.819 91.736 135.216 90.4586L135.693 90.6071C136.095 89.3164 136.503 88.0381 136.919 86.7728L136.444 86.6169C136.866 85.3291 137.296 84.0546 137.732 82.7935L138.205 82.9571C138.648 81.6763 139.099 80.4096 139.556 79.1573L139.086 78.9857C139.55 77.7157 140.021 76.4604 140.499 75.2201L140.966 75.3999C141.455 74.1309 141.952 72.8778 142.455 71.6408L141.992 71.4523C142.501 70.202 143.018 68.9682 143.541 67.7513L144 67.9489C144.539 66.6972 145.085 65.4634 145.638 64.248L145.183 64.0408C145.746 62.8055 146.316 61.5889 146.894 60.3916L147.344 60.6089C147.933 59.3896 148.529 58.1904 149.132 57.0118L148.687 56.7839C149.31 55.5681 149.94 54.374 150.579 53.2022L151.018 53.4414C151.665 52.2542 152.319 51.0901 152.982 49.9495L152.549 49.6984C153.235 48.5186 153.928 47.3637 154.63 46.2343L155.055 46.4982C155.773 45.3414 156.501 44.2117 157.236 43.1096L156.82 42.8321C157.575 41.7005 158.339 40.5977 159.111 39.5244L159.516 39.8164C160.309 38.7147 161.11 37.6446 161.919 36.6065L161.525 36.2991C162.369 35.2173 163.222 34.1699 164.083 33.1579L164.464 33.482C165.346 32.4465 166.237 31.4485 167.136 30.4888L166.772 30.1469C167.705 29.151 168.648 28.1958 169.601 27.2822L169.947 27.643C170.924 26.7055 171.911 25.8126 172.906 24.9652L172.582 24.5844C173.627 23.6952 174.681 22.8554 175.746 22.0662L176.044 22.4678C177.135 21.6588 178.236 20.9038 179.345 20.204L179.079 19.7811C180.235 19.0519 181.402 18.3816 182.579 17.7718L182.809 18.2158C184.006 17.5953 185.213 17.0386 186.429 16.5469L186.242 16.0833C187.501 15.5739 188.771 15.1331 190.05 14.7628L190.189 15.2431C191.471 14.872 192.763 14.5727 194.062 14.347L193.977 13.8544C195.302 13.6242 196.637 13.4693 197.979 13.3916L198.008 13.8908C198.67 13.8525 199.334 13.8333 200 13.8333C200.666 13.8333 201.33 13.8525 201.992 13.8908L202.02 13.3916C203.363 13.4693 204.698 13.6241 206.023 13.8544L205.938 14.347C207.237 14.5727 208.528 14.8719 209.811 15.2431L209.95 14.7628C211.229 15.1331 212.499 15.5738 213.758 16.0833L213.571 16.5468C214.787 17.0385 215.993 17.5953 217.191 18.2157L217.421 17.7718C218.598 18.3816 219.765 19.0518 220.921 19.781L220.654 20.204C221.764 20.9037 222.865 21.6587 223.956 22.4677L224.254 22.0661C225.318 22.8554 226.373 23.6952 227.418 24.5843L227.094 24.9651C228.089 25.8125 229.076 26.7055 230.053 27.643L230.399 27.2821C231.352 28.1957 232.295 29.1509 233.228 30.1468L232.864 30.4888C233.763 31.4485 234.654 32.4465 235.536 33.482L235.916 33.1578C236.778 34.1699 237.631 35.2172 238.475 36.299L238.08 36.6065C238.89 37.6445 239.691 38.7147 240.483 39.8163L240.889 39.5244C241.661 40.5977 242.425 41.7005 243.18 42.8321L242.764 43.1095C243.499 44.2116 244.226 45.3414 244.945 46.4981L245.37 46.2343C246.072 47.3637 246.765 48.5186 247.45 49.6984L247.018 49.9495C247.681 51.0901 248.335 52.2542 248.982 53.4413L249.421 53.2021C250.06 54.374 250.69 55.5681 251.313 56.7839L250.868 57.0118C251.471 58.1904 252.067 59.3896 252.656 60.6089L253.106 60.3916C253.684 61.5889 254.254 62.8055 254.817 64.0408L254.361 64.248C254.915 65.4634 255.461 66.6972 256 67.9489L256.459 67.7513C256.982 68.9683 257.499 70.2021 258.008 71.4523L257.545 71.6408C258.048 72.8778 258.545 74.1309 259.034 75.3999L259.501 75.2201C259.979 76.4604 260.45 77.7157 260.913 78.9858L260.444 79.1573C260.901 80.4096 261.352 81.6764 261.795 82.9571L262.268 82.7936C262.704 84.0546 263.134 85.3291 263.556 86.6169L263.081 86.7728C263.496 88.0382 263.905 89.3164 264.307 90.6071L264.784 90.4586C265.181 91.736 265.572 93.0257 265.956 94.3272L265.476 94.4687C265.853 95.7454 266.222 97.0337 266.585 98.3333L267.067 98.1988C267.428 99.4892 267.781 100.791 268.128 102.103L267.645 102.231C267.985 103.518 268.319 104.815 268.647 106.123L269.132 106.001C269.457 107.302 269.776 108.613 270.088 109.933L269.602 110.048C269.909 111.344 270.209 112.65 270.502 113.965L270.99 113.856C271.283 115.165 271.568 116.483 271.848 117.809L271.358 117.912C271.633 119.217 271.902 120.531 272.163 121.853L272.654 121.755C272.914 123.07 273.169 124.393 273.416 125.724L272.925 125.816C273.169 127.129 273.407 128.45 273.639 129.778L274.131 129.692C274.361 131.012 274.585 132.339 274.803 133.673L274.309 133.753C274.524 135.074 274.733 136.402 274.936 137.737L275.43 137.662C275.631 138.984 275.826 140.314 276.014 141.651L275.519 141.72C275.706 143.048 275.887 144.382 276.061 145.723L276.557 145.658C276.73 146.984 276.896 148.315 277.056 149.653L276.56 149.712C276.72 151.046 276.873 152.387 277.02 153.733L277.518 153.678C277.663 155.005 277.802 156.338 277.935 157.676L277.437 157.726C277.57 159.062 277.697 160.404 277.817 161.752L278.315 161.707C278.434 163.039 278.547 164.375 278.654 165.717L278.155 165.757C278.262 167.093 278.362 168.435 278.456 169.782L278.955 169.747C279.048 171.084 279.135 172.426 279.216 173.773L278.717 173.803C278.798 175.139 278.872 176.48 278.941 177.825L279.44 177.799C279.508 179.142 279.57 180.489 279.626 181.84L279.127 181.86C279.182 183.196 279.231 184.535 279.274 185.878L279.774 185.862C279.817 187.207 279.854 188.556 279.885 189.909L279.385 189.92C279.416 191.256 279.44 192.596 279.459 193.94L279.958 193.933Z" stroke="#1B1B1B" stroke-dasharray="4 4"/>
<path d="M252.249 139.171C253.212 140.107 254.172 141.051 255.131 142.001L254.779 142.356C255.258 142.831 255.737 143.307 256.215 143.785C256.693 144.263 257.169 144.741 257.643 145.22L257.998 144.868C258.949 145.827 259.892 146.788 260.829 147.75L260.47 148.099C261.407 149.062 262.337 150.027 263.261 150.993L263.622 150.648C264.557 151.626 265.485 152.606 266.405 153.588L266.04 153.93C266.96 154.91 267.872 155.892 268.777 156.875L269.145 156.537C270.061 157.532 270.969 158.528 271.87 159.525L271.499 159.86C272.402 160.86 273.298 161.861 274.185 162.862L274.56 162.531C275.454 163.54 276.342 164.551 277.221 165.563L276.844 165.891C277.73 166.909 278.607 167.929 279.477 168.949L279.858 168.625C280.731 169.649 281.596 170.674 282.454 171.7L282.07 172.02C282.938 173.058 283.797 174.097 284.648 175.136L285.035 174.819C285.887 175.859 286.731 176.9 287.567 177.941L287.177 178.254C288.025 179.31 288.864 180.366 289.694 181.422L290.087 181.113C290.92 182.173 291.744 183.232 292.559 184.291L292.163 184.596C292.987 185.667 293.803 186.739 294.609 187.81L295.009 187.509C295.821 188.587 296.623 189.665 297.417 190.742L297.014 191.039C297.815 192.126 298.606 193.213 299.387 194.299L299.793 194.007C300.583 195.104 301.363 196.2 302.133 197.296L301.724 197.583C302.5 198.687 303.266 199.789 304.021 200.89L304.434 200.607C305.2 201.724 305.955 202.839 306.701 203.953L306.285 204.231C307.035 205.351 307.774 206.47 308.503 207.587L308.921 207.313C309.662 208.449 310.392 209.583 311.11 210.715L310.688 210.983C311.41 212.12 312.121 213.256 312.821 214.389L313.247 214.127C313.959 215.281 314.661 216.433 315.35 217.583L314.921 217.84C315.615 218.996 316.296 220.15 316.965 221.301L317.397 221.049C318.08 222.223 318.75 223.393 319.407 224.561L318.972 224.806C319.634 225.982 320.284 227.154 320.92 228.323L321.359 228.084C322.008 229.276 322.644 230.464 323.266 231.648L322.824 231.881C323.452 233.077 324.067 234.27 324.669 235.458L325.115 235.233C325.726 236.442 326.324 237.647 326.907 238.847L326.457 239.066C327.049 240.285 327.626 241.499 328.189 242.708L328.642 242.497C329.212 243.723 329.767 244.944 330.306 246.159L329.848 246.362C330.4 247.605 330.935 248.842 331.454 250.073L331.914 249.879C332.438 251.123 332.946 252.361 333.436 253.591L332.972 253.776C333.476 255.042 333.962 256.301 334.43 257.551L334.898 257.376C335.374 258.648 335.831 259.911 336.269 261.166L335.797 261.331C336.243 262.609 336.67 263.878 337.076 265.139L337.552 264.985C337.972 266.285 338.37 267.575 338.747 268.855L338.268 268.997C338.65 270.293 339.01 271.58 339.348 272.855L339.831 272.726C340.181 274.045 340.507 275.352 340.81 276.647L340.323 276.761C340.633 278.087 340.917 279.4 341.177 280.699L341.667 280.601C341.933 281.935 342.173 283.255 342.386 284.56L341.893 284.641C342.111 285.98 342.302 287.303 342.463 288.609L342.959 288.548C343.128 289.909 343.265 291.253 343.372 292.578L342.873 292.618C342.982 293.974 343.058 295.309 343.1 296.624L343.6 296.608C343.644 297.972 343.653 299.315 343.625 300.634L343.125 300.624C343.097 301.978 343.031 303.307 342.926 304.61L343.424 304.65C343.315 306.017 343.163 307.357 342.968 308.668L342.473 308.594C342.274 309.938 342.029 311.25 341.739 312.53L342.227 312.64C341.925 313.974 341.574 315.273 341.173 316.536L340.696 316.385C340.288 317.67 339.829 318.917 339.317 320.125L339.777 320.32C339.246 321.571 338.66 322.78 338.018 323.947L337.58 323.705C336.935 324.874 336.234 325.999 335.475 327.078L335.884 327.365C335.109 328.465 334.275 329.519 333.38 330.523L333.007 330.19C332.566 330.686 332.11 331.169 331.639 331.64C331.169 332.11 330.685 332.566 330.19 333.007L330.523 333.38C329.519 334.275 328.465 335.109 327.365 335.884L327.078 335.475C325.999 336.234 324.874 336.935 323.705 337.58L323.947 338.018C322.78 338.66 321.571 339.247 320.32 339.777L320.124 339.317C318.917 339.829 317.67 340.288 316.385 340.696L316.536 341.173C315.273 341.574 313.974 341.925 312.64 342.227L312.53 341.74C311.25 342.03 309.938 342.274 308.594 342.474L308.668 342.968C307.357 343.163 306.017 343.315 304.65 343.425L304.61 342.926C303.307 343.031 301.978 343.097 300.624 343.125L300.634 343.625C299.315 343.653 297.972 343.644 296.608 343.6L296.624 343.1C295.309 343.058 293.974 342.982 292.618 342.873L292.578 343.372C291.253 343.266 289.909 343.128 288.548 342.96L288.609 342.463C287.303 342.302 285.98 342.112 284.64 341.893L284.56 342.386C283.255 342.173 281.935 341.933 280.601 341.667L280.699 341.177C279.4 340.917 278.087 340.633 276.761 340.323L276.647 340.81C275.352 340.507 274.045 340.181 272.726 339.832L272.854 339.348C271.579 339.01 270.293 338.65 268.997 338.268L268.855 338.748C267.575 338.37 266.285 337.972 264.985 337.553L265.139 337.077C263.878 336.67 262.609 336.244 261.331 335.797L261.166 336.269C259.911 335.831 258.647 335.374 257.376 334.899L257.551 334.43C256.301 333.962 255.042 333.476 253.776 332.972L253.591 333.436C252.36 332.946 251.123 332.439 249.879 331.914L250.073 331.454C248.842 330.935 247.605 330.4 246.362 329.849L246.159 330.306C244.944 329.767 243.723 329.212 242.497 328.642L242.708 328.189C241.499 327.627 240.285 327.049 239.066 326.457L238.847 326.907C237.647 326.324 236.442 325.727 235.232 325.115L235.458 324.669C234.27 324.068 233.077 323.453 231.88 322.824L231.648 323.266C230.464 322.644 229.275 322.008 228.084 321.359L228.323 320.92C227.154 320.284 225.981 319.634 224.806 318.972L224.56 319.408C223.393 318.75 222.222 318.08 221.049 317.398L221.301 316.965C220.15 316.296 218.996 315.615 217.84 314.922L217.583 315.35C216.433 314.661 215.281 313.96 214.127 313.247L214.389 312.821C213.256 312.122 212.12 311.41 210.983 310.688L210.715 311.11C209.583 310.392 208.449 309.662 207.313 308.922L207.586 308.503C206.469 307.774 205.351 307.035 204.231 306.286L203.953 306.701C202.839 305.956 201.724 305.2 200.607 304.434L200.89 304.021C199.789 303.266 198.687 302.5 197.583 301.724L197.296 302.133C196.2 301.363 195.104 300.583 194.006 299.793L194.298 299.388C193.213 298.606 192.126 297.815 191.039 297.014L190.742 297.417C189.665 296.623 188.587 295.821 187.509 295.009L187.81 294.61C186.739 293.803 185.667 292.988 184.596 292.163L184.291 292.559C183.232 291.744 182.172 290.92 181.113 290.088L181.422 289.695C180.366 288.864 179.31 288.025 178.254 287.177L177.941 287.567C176.9 286.732 175.859 285.888 174.819 285.035L175.136 284.649C174.097 283.797 173.058 282.938 172.02 282.07L171.7 282.454C170.674 281.597 169.649 280.731 168.625 279.858L168.949 279.477C167.929 278.608 166.909 277.73 165.891 276.844L165.563 277.221C164.551 276.342 163.54 275.455 162.531 274.56L162.862 274.186C161.86 273.298 160.86 272.402 159.86 271.5L159.525 271.871C158.528 270.97 157.532 270.061 156.537 269.145L156.875 268.777C155.892 267.872 154.91 266.96 153.93 266.041L153.588 266.405C152.606 265.485 151.626 264.557 150.648 263.622L150.993 263.261C150.027 262.338 149.062 261.408 148.099 260.471L147.75 260.829C146.788 259.892 145.827 258.949 144.868 257.999L145.22 257.644C144.741 257.169 144.263 256.693 143.785 256.215C143.307 255.737 142.831 255.259 142.356 254.78L142.001 255.132C141.051 254.173 140.107 253.212 139.171 252.249L139.529 251.901C138.592 250.938 137.662 249.973 136.739 249.006L136.377 249.352C135.442 248.374 134.515 247.394 133.594 246.412L133.959 246.07C133.04 245.09 132.127 244.108 131.222 243.124L130.854 243.463C129.939 242.468 129.03 241.472 128.129 240.474L128.5 240.139C127.597 239.14 126.702 238.139 125.814 237.137L125.44 237.469C124.545 236.459 123.658 235.449 122.778 234.437L123.156 234.109C122.27 233.09 121.392 232.071 120.522 231.051L120.142 231.375C119.268 230.351 118.403 229.326 117.546 228.3L117.929 227.979C117.062 226.941 116.202 225.903 115.351 224.864L114.964 225.181C114.112 224.141 113.268 223.1 112.432 222.059L112.822 221.746C111.975 220.69 111.135 219.634 110.305 218.577L109.912 218.886C109.079 217.827 108.256 216.768 107.44 215.709L107.837 215.404C107.012 214.332 106.197 213.261 105.39 212.19L104.991 212.491C104.179 211.413 103.376 210.335 102.583 209.257L102.985 208.961C102.185 207.874 101.394 206.787 100.612 205.701L100.206 205.993C99.4164 204.896 98.6364 203.799 97.8661 202.704L98.2751 202.416C97.4995 201.313 96.7338 200.211 95.9781 199.109L95.5658 199.392C94.7998 198.276 94.044 197.161 93.2985 196.047L93.714 195.769C92.9644 194.649 92.2253 193.53 91.4968 192.413L91.078 192.686C90.3375 191.551 89.6078 190.417 88.8892 189.285L89.3113 189.017C88.5891 187.879 87.8781 186.744 87.1782 185.61L86.7528 185.873C86.04 184.719 85.3387 183.566 84.6492 182.416L85.0781 182.159C84.3849 181.003 83.7035 179.85 83.0342 178.699L82.602 178.95C81.9195 177.777 81.2495 176.607 80.5919 175.439L81.0276 175.194C80.3653 174.018 79.7159 172.846 79.0792 171.677L78.6401 171.916C77.9911 170.724 77.3554 169.536 76.7332 168.352L77.1758 168.119C76.547 166.922 75.932 165.73 75.3309 164.541L74.8847 164.767C74.273 163.558 73.6755 162.353 73.0925 161.152L73.5423 160.934C72.9501 159.715 72.373 158.501 71.8109 157.292L71.3575 157.502C70.7874 156.276 70.2329 155.056 69.6939 153.84L70.1509 153.638C69.5995 152.395 69.0644 151.157 68.5459 149.927L68.0851 150.121C67.561 148.877 67.0537 147.639 66.5634 146.408L67.0279 146.223C66.5236 144.958 66.0374 143.699 65.5693 142.448L65.101 142.623C64.6253 141.352 64.1683 140.089 63.7301 138.834L64.2022 138.669C63.756 137.391 63.3295 136.121 62.9229 134.861L62.4471 135.015C62.0276 133.715 61.6292 132.424 61.252 131.144L61.7316 131.003C61.3495 129.706 60.9893 128.42 60.6513 127.145L60.168 127.273C59.8183 125.954 59.4921 124.647 59.1897 123.353L59.6766 123.239C59.3668 121.913 59.0821 120.6 58.8228 119.301L58.3324 119.398C58.0661 118.064 57.8263 116.745 57.6132 115.44L58.1067 115.359C57.8881 114.02 57.6978 112.697 57.5362 111.39L57.04 111.452C56.8715 110.09 56.734 108.747 56.6278 107.422L57.1262 107.382C57.0175 106.026 56.9417 104.69 56.8992 103.376L56.3995 103.392C56.3554 102.027 56.3468 100.685 56.3743 99.3657L56.8742 99.3761C56.9023 98.0221 56.9686 96.693 57.0733 95.3899L56.5749 95.3498C56.6848 93.9824 56.8368 92.6427 57.0314 91.332L57.526 91.4054C57.7255 90.0618 57.97 88.7496 58.2599 87.47L57.7723 87.3595C58.0745 86.026 58.4257 84.7269 58.8266 83.4637L59.3032 83.6149C59.7111 82.3295 60.1708 81.0825 60.6828 79.8752L60.2224 79.68C60.7529 78.4289 61.3392 77.2194 61.9819 76.053L62.4198 76.2943C63.064 75.1253 63.7654 74.0006 64.5247 72.9222L64.1159 72.6343C64.8903 71.5343 65.7245 70.4811 66.619 69.4768L66.9924 69.8093C67.4333 69.3142 67.8892 68.8311 68.3601 68.3602C68.8309 67.8894 69.314 67.4336 69.809 66.9926L69.4765 66.6192C70.4809 65.7247 71.534 64.8906 72.634 64.1161L72.9219 64.5249C74.0004 63.7657 75.125 63.0642 76.2941 62.42L76.0528 61.9821C77.2191 61.3394 78.4287 60.7532 79.6797 60.2227L79.8749 60.683C81.0822 60.171 82.3293 59.7113 83.6147 59.3034L83.4634 58.8268C84.7267 58.4259 86.0258 58.0747 87.3593 57.7725L87.4698 58.2601C88.7493 57.9701 90.0615 57.7256 91.4051 57.5262L91.3317 57.0316C92.6425 56.837 93.9822 56.685 95.3496 56.5751L95.3896 57.0735C96.6928 56.9687 98.0219 56.9025 99.3758 56.8743L99.3655 56.3744C100.685 56.347 102.027 56.3555 103.391 56.3997L103.375 56.8994C104.69 56.9419 106.026 57.0177 107.381 57.1264L107.421 56.628C108.746 56.7342 110.09 56.8717 111.452 57.0401L111.39 57.5363C112.697 57.698 114.02 57.8882 115.359 58.1069L115.44 57.6134C116.744 57.8264 118.064 58.0663 119.398 58.3326L119.3 58.8229C120.6 59.0823 121.913 59.367 123.239 59.6767L123.352 59.1898C124.647 59.4923 125.954 59.8184 127.273 60.1681L127.145 60.6514C128.42 60.9895 129.706 61.3497 131.003 61.7318L131.144 61.2522C132.424 61.6294 133.715 62.0278 135.014 62.4472L134.861 62.9231C136.121 63.3297 137.39 63.7562 138.669 64.2024L138.833 63.7303C140.089 64.1684 141.352 64.6255 142.623 65.1012L142.448 65.5695C143.699 66.0375 144.957 66.5238 146.223 67.0281L146.408 66.5636C147.639 67.0539 148.877 67.5612 150.121 68.0853L149.927 68.546C151.157 69.0646 152.394 69.5996 153.638 70.1511L153.84 69.694C155.055 70.233 156.276 70.7876 157.502 71.3576L157.291 71.811C158.5 72.3731 159.715 72.9503 160.934 73.5425L161.152 73.0927C162.353 73.6757 163.558 74.2731 164.767 74.8849L164.541 75.3311C165.73 75.9322 166.922 76.5472 168.119 77.176L168.352 76.7334C169.536 77.3556 170.724 77.9913 171.916 78.6403L171.677 79.0794C172.846 79.716 174.018 80.3655 175.194 81.0277L175.439 80.5921C176.606 81.2496 177.777 81.9197 178.95 82.6022L178.699 83.0344C179.85 83.7037 181.003 84.385 182.159 85.0782L182.416 84.6494C183.566 85.3389 184.718 86.0401 185.873 86.7529L185.61 87.1784C186.744 87.8782 187.879 88.5893 189.017 89.3115L189.285 88.8894C190.417 89.608 191.551 90.3377 192.686 91.0782L192.413 91.497C193.53 92.2255 194.649 92.9646 195.769 93.7142L196.047 93.2987C197.161 94.0441 198.276 94.7999 199.392 95.566L199.109 95.9782C200.21 96.734 201.313 97.4997 202.416 98.2753L202.704 97.8663C203.799 98.6365 204.896 99.4166 205.993 100.206L205.701 100.612C206.787 101.394 207.874 102.185 208.961 102.985L209.257 102.583C210.335 103.376 211.412 104.179 212.491 104.991L212.19 105.39C213.261 106.197 214.332 107.012 215.404 107.837L215.708 107.441C216.768 108.256 217.827 109.08 218.886 109.912L218.577 110.305C219.633 111.136 220.69 111.975 221.746 112.822L222.059 112.432C223.1 113.268 224.14 114.112 225.181 114.964L224.864 115.351C225.903 116.202 226.941 117.062 227.979 117.929L228.3 117.546C229.326 118.403 230.351 119.269 231.375 120.142L231.05 120.522C232.071 121.392 233.09 122.27 234.109 123.156L234.437 122.778C235.449 123.658 236.459 124.545 237.469 125.44L237.137 125.814C238.139 126.702 239.14 127.597 240.139 128.5L240.474 128.129C241.472 129.03 242.468 129.939 243.463 130.854L243.124 131.222C244.107 132.127 245.089 133.04 246.07 133.959L246.412 133.594C247.393 134.515 248.373 135.443 249.352 136.377L249.006 136.739C249.973 137.662 250.937 138.592 251.9 139.529L252.249 139.171Z" stroke="#1B1B1B" stroke-dasharray="4 4"/>
<path d="M260.591 252.011C259.654 252.974 258.711 253.935 257.76 254.894L257.405 254.542C256.931 255.02 256.454 255.499 255.976 255.977C255.499 256.455 255.02 256.931 254.541 257.406L254.893 257.761C253.934 258.711 252.973 259.654 252.011 260.591L251.662 260.233C250.699 261.17 249.734 262.1 248.768 263.023L249.114 263.384C248.135 264.319 247.155 265.247 246.174 266.167L245.832 265.803C244.851 266.722 243.869 267.634 242.886 268.539L243.225 268.907C242.23 269.823 241.234 270.732 240.236 271.633L239.901 271.262C238.901 272.164 237.901 273.06 236.899 273.948L237.231 274.322C236.221 275.217 235.21 276.104 234.199 276.983L233.871 276.606C232.852 277.492 231.833 278.37 230.812 279.239L231.137 279.62C230.112 280.493 229.087 281.359 228.062 282.216L227.741 281.832C226.703 282.7 225.665 283.559 224.626 284.411L224.942 284.797C223.902 285.65 222.861 286.494 221.82 287.329L221.507 286.939C220.451 287.787 219.395 288.626 218.339 289.457L218.648 289.85C217.589 290.682 216.529 291.506 215.47 292.321L215.165 291.925C214.094 292.75 213.023 293.565 211.952 294.372L212.252 294.771C211.174 295.583 210.096 296.385 209.019 297.179L208.722 296.776C207.635 297.577 206.549 298.368 205.463 299.15L205.755 299.555C204.658 300.345 203.561 301.125 202.465 301.895L202.178 301.486C201.075 302.262 199.972 303.028 198.871 303.784L199.154 304.196C198.038 304.962 196.922 305.718 195.809 306.463L195.53 306.048C194.41 306.797 193.292 307.536 192.175 308.265L192.448 308.684C191.312 309.424 190.179 310.154 189.047 310.872L188.779 310.45C187.641 311.173 186.505 311.884 185.372 312.583L185.635 313.009C184.48 313.722 183.328 314.423 182.178 315.112L181.921 314.684C180.765 315.377 179.611 316.058 178.461 316.727L178.712 317.16C177.539 317.842 176.368 318.512 175.201 319.17L174.955 318.734C173.78 319.396 172.607 320.046 171.438 320.682L171.677 321.121C170.486 321.77 169.298 322.406 168.113 323.028L167.881 322.586C166.684 323.215 165.491 323.83 164.303 324.431L164.529 324.877C163.319 325.489 162.114 326.086 160.914 326.669L160.696 326.219C159.476 326.811 158.262 327.389 157.053 327.951L157.264 328.404C156.038 328.974 154.817 329.529 153.602 330.068L153.399 329.611C152.156 330.162 150.919 330.697 149.688 331.216L149.882 331.677C148.638 332.201 147.401 332.708 146.17 333.198L145.985 332.734C144.719 333.238 143.461 333.724 142.21 334.192L142.385 334.661C141.114 335.136 139.85 335.593 138.595 336.031L138.43 335.559C137.152 336.006 135.883 336.432 134.623 336.839L134.776 337.315C133.476 337.734 132.186 338.132 130.906 338.51L130.765 338.03C129.468 338.412 128.182 338.772 126.907 339.11L127.035 339.594C125.716 339.943 124.409 340.269 123.114 340.572L123 340.085C121.674 340.395 120.361 340.679 119.062 340.939L119.16 341.429C117.826 341.696 116.506 341.935 115.201 342.148L115.121 341.655C113.782 341.874 112.458 342.064 111.152 342.225L111.213 342.722C109.852 342.89 108.508 343.028 107.183 343.134L107.143 342.635C105.788 342.744 104.452 342.82 103.137 342.862L103.153 343.362C101.789 343.406 100.447 343.415 99.1273 343.387L99.1377 342.887C97.7837 342.859 96.4547 342.793 95.1515 342.688L95.1114 343.187C93.744 343.077 92.4043 342.925 91.0936 342.73L91.167 342.236C89.8234 342.036 88.5112 341.792 87.2316 341.502L87.1211 341.989C85.7877 341.687 84.4886 341.336 83.2253 340.935L83.3766 340.458C82.0912 340.05 80.8441 339.591 79.6368 339.079L79.4416 339.539C78.1906 339.009 76.981 338.422 75.8147 337.78L76.056 337.342C74.8869 336.698 73.7623 335.996 72.6838 335.237L72.396 335.646C71.2959 334.871 70.2427 334.037 69.2384 333.143L69.5709 332.769C69.0758 332.328 68.5927 331.872 68.1218 331.402C67.651 330.931 67.1952 330.448 66.7542 329.953L66.3809 330.285C65.4863 329.281 64.6522 328.228 63.8777 327.128L64.2866 326.84C63.5273 325.761 62.8259 324.637 62.1816 323.468L61.7437 323.709C61.101 322.543 60.5148 321.333 59.9843 320.082L60.4446 319.887C59.9326 318.679 59.4729 317.432 59.065 316.147L58.5884 316.298C58.1875 315.035 57.8363 313.736 57.5341 312.402L58.0217 312.292C57.7318 311.012 57.4873 309.7 57.2878 308.356L56.7932 308.43C56.5986 307.119 56.4466 305.779 56.3367 304.412L56.8351 304.372C56.7303 303.069 56.6641 301.74 56.6359 300.386L56.1361 300.396C56.1086 299.077 56.1172 297.734 56.1613 296.37L56.661 296.386C56.7035 295.072 56.7793 293.736 56.888 292.38L56.3896 292.34C56.4958 291.015 56.6333 289.672 56.8017 288.31L57.298 288.371C57.4596 287.065 57.6498 285.742 57.8685 284.403L57.375 284.322C57.5881 283.017 57.8279 281.697 58.0942 280.363L58.5845 280.461C58.8439 279.162 59.1286 277.849 59.4384 276.523L58.9514 276.409C59.2539 275.114 59.5801 273.807 59.9298 272.489L60.413 272.617C60.7511 271.342 61.1113 270.056 61.4934 268.759L61.0138 268.617C61.391 267.337 61.7894 266.047 62.2088 264.747L62.6847 264.901C63.0913 263.641 63.5178 262.371 63.964 261.093L63.4919 260.928C63.93 259.673 64.3871 258.41 64.8628 257.138L65.3311 257.314C65.7991 256.063 66.2854 254.804 66.7897 253.538L66.3252 253.353C66.8155 252.123 67.3228 250.885 67.8469 249.641L68.3077 249.835C68.8262 248.604 69.3612 247.367 69.9127 246.124L69.4557 245.921C69.9947 244.706 70.5492 243.485 71.1193 242.259L71.5727 242.47C72.1348 241.261 72.7119 240.047 73.3041 238.828L72.8543 238.609C73.4373 237.409 74.0348 236.204 74.6465 234.995L75.0927 235.22C75.6938 234.032 76.3088 232.839 76.9376 231.643L76.495 231.41C77.1172 230.226 77.7529 229.038 78.4019 227.846L78.841 228.085C79.4777 226.916 80.1271 225.744 80.7893 224.568L80.3537 224.323C81.0113 223.155 81.6813 221.985 82.3638 220.811L82.796 221.063C83.4653 219.912 84.1467 218.759 84.8398 217.603L84.411 217.345C85.1005 216.196 85.8017 215.043 86.5146 213.889L86.94 214.151C87.6398 213.018 88.3509 211.882 89.0731 210.745L88.651 210.477C89.3696 209.345 90.0993 208.211 90.8398 207.076L91.2586 207.349C91.9871 206.232 92.7262 205.113 93.4758 203.993L93.0603 203.715C93.8057 202.601 94.5615 201.486 95.3276 200.37L95.7399 200.652C96.4956 199.551 97.2613 198.449 98.0369 197.346L97.6279 197.058C98.3982 195.962 99.1782 194.866 99.9679 193.769L100.374 194.061C101.155 192.975 101.947 191.888 102.747 190.801L102.344 190.504C103.138 189.427 103.941 188.349 104.752 187.271L105.152 187.572C105.958 186.501 106.774 185.429 107.598 184.358L107.202 184.053C108.017 182.994 108.841 181.935 109.674 180.876L110.067 181.185C110.897 180.128 111.736 179.072 112.584 178.016L112.194 177.703C113.03 176.662 113.874 175.621 114.726 174.581L115.113 174.898C115.964 173.859 116.823 172.82 117.691 171.782L117.307 171.462C118.165 170.436 119.03 169.411 119.903 168.387L120.284 168.711C121.154 167.691 122.032 166.671 122.917 165.653L122.54 165.325C123.419 164.313 124.307 163.302 125.202 162.293L125.576 162.624C126.464 161.623 127.359 160.622 128.262 159.623L127.891 159.287C128.792 158.29 129.7 157.294 130.616 156.299L130.984 156.638C131.889 155.654 132.801 154.672 133.721 153.692L133.356 153.35C134.277 152.368 135.204 151.388 136.139 150.41L136.5 150.755C137.424 149.789 138.354 148.824 139.291 147.861L138.932 147.513C139.869 146.55 140.812 145.589 141.763 144.63L142.118 144.982C142.592 144.503 143.069 144.025 143.547 143.547C144.024 143.069 144.503 142.593 144.982 142.118L144.63 141.763C145.589 140.813 146.55 139.869 147.512 138.933L147.861 139.291C148.824 138.354 149.788 137.424 150.755 136.501L150.409 136.139C151.388 135.205 152.368 134.277 153.349 133.357L153.691 133.721C154.672 132.802 155.654 131.89 156.637 130.984L156.298 130.617C157.293 129.701 158.289 128.792 159.287 127.891L159.622 128.262C160.622 127.359 161.622 126.464 162.624 125.576L162.292 125.202C163.302 124.307 164.313 123.42 165.324 122.54L165.652 122.918C166.671 122.032 167.69 121.154 168.711 120.284L168.386 119.904C169.411 119.031 170.436 118.165 171.461 117.308L171.782 117.691C172.82 116.824 173.858 115.964 174.897 115.113L174.581 114.726C175.621 113.874 176.662 113.03 177.703 112.194L178.016 112.584C179.072 111.737 180.128 110.898 181.184 110.067L180.875 109.674C181.934 108.842 182.993 108.018 184.053 107.203L184.358 107.599C185.429 106.774 186.5 105.959 187.571 105.152L187.271 104.753C188.349 103.941 189.427 103.138 190.504 102.345L190.8 102.748C191.888 101.947 192.974 101.156 194.06 100.374L193.768 99.9684C194.865 99.1786 195.962 98.3986 197.058 97.6283L197.345 98.0374C198.448 97.2617 199.551 96.496 200.652 95.7403L200.369 95.328C201.485 94.562 202.601 93.8062 203.714 93.0607L203.993 93.4762C205.113 92.7266 206.231 91.9876 207.348 91.259L207.075 90.8402C208.211 90.0997 209.344 89.37 210.476 88.6514L210.744 89.0735C211.882 88.3513 213.018 87.6403 214.151 86.9404L213.888 86.515C215.043 85.8022 216.195 85.101 217.345 84.4115L217.602 84.8403C218.758 84.1471 219.912 83.4658 221.062 82.7964L220.811 82.3642C221.984 81.6817 223.155 81.0117 224.322 80.3541L224.568 80.7898C225.743 80.1275 226.916 79.4781 228.085 78.8414L227.846 78.4023C229.037 77.7533 230.225 77.1176 231.41 76.4954L231.642 76.938C232.839 76.3093 234.032 75.6942 235.22 75.0931L234.994 74.6469C236.204 74.0352 237.409 73.4377 238.609 72.8547L238.827 73.3045C240.047 72.7124 241.261 72.1352 242.47 71.5731L242.259 71.1197C243.485 70.5496 244.706 69.9951 245.921 69.4561L246.124 69.9131C247.367 69.3617 248.604 68.8266 249.835 68.3081L249.641 67.8473C250.885 67.3232 252.122 66.8159 253.353 66.3256L253.538 66.7901C254.804 66.2858 256.062 65.7996 257.313 65.3315L257.138 64.8632C258.409 64.3875 259.673 63.9305 260.928 63.4923L261.093 63.9644C262.371 63.5182 263.64 63.0917 264.9 62.6851L264.747 62.2093C266.047 61.7898 267.337 61.3914 268.617 61.0142L268.758 61.4938C270.055 61.1117 271.341 60.7516 272.616 60.4135L272.488 59.9302C273.807 59.5805 275.114 59.2543 276.409 58.9519L276.522 59.4388C277.849 59.129 279.162 58.8443 280.461 58.585L280.363 58.0946C281.697 57.8283 283.017 57.5885 284.322 57.3755L284.402 57.8689C285.741 57.6503 287.065 57.46 288.371 57.2984L288.31 56.8022C289.671 56.6337 291.015 56.4963 292.34 56.39L292.38 56.8884C293.735 56.7797 295.071 56.7039 296.386 56.6614L296.37 56.1617C297.734 56.1176 299.076 56.109 300.396 56.1365L300.385 56.6364C301.739 56.6645 303.068 56.7308 304.371 56.8355L304.412 56.3371C305.779 56.447 307.119 56.599 308.429 56.7936L308.356 57.2882C309.7 57.4877 311.012 57.7322 312.291 58.0221L312.402 57.5345C313.735 57.8367 315.034 58.1879 316.298 58.5888L316.146 59.0654C317.432 59.4733 318.679 59.933 319.886 60.445L320.081 59.9846C321.332 60.5151 322.542 61.1014 323.708 61.7441L323.467 62.182C324.636 62.8262 325.761 63.5276 326.839 64.2869L327.127 63.8781C328.227 64.6525 329.28 65.4867 330.285 66.3812L329.952 66.7546C330.447 67.1955 330.93 67.6514 331.401 68.1223C331.872 68.5931 332.328 69.0762 332.769 69.5713L333.142 69.2387C334.037 70.2431 334.871 71.2962 335.645 72.3963L335.236 72.6841C335.996 73.7626 336.697 74.8872 337.341 76.0563L337.779 75.815C338.422 76.9813 339.008 78.1909 339.539 79.4419L339.078 79.6371C339.59 80.8444 340.05 82.0915 340.458 83.3769L340.935 83.2256C341.335 84.4889 341.687 85.788 341.989 87.1215L341.501 87.232C341.791 88.5115 342.036 89.8237 342.235 91.1673L342.73 91.0939C342.924 92.4047 343.076 93.7444 343.186 95.1118L342.688 95.1518C342.793 96.455 342.859 97.7841 342.887 99.138L343.387 99.1277C343.414 100.447 343.406 101.789 343.362 103.154L342.862 103.138C342.819 104.452 342.744 105.788 342.635 107.144L343.133 107.184C343.027 108.509 342.89 109.852 342.721 111.214L342.225 111.152C342.063 112.459 341.873 113.782 341.654 115.121L342.148 115.202C341.935 116.507 341.695 117.826 341.429 119.16L340.938 119.063C340.679 120.362 340.394 121.675 340.085 123.001L340.572 123.115C340.269 124.409 339.943 125.716 339.593 127.035L339.11 126.907C338.772 128.182 338.412 129.468 338.03 130.765L338.509 130.906C338.132 132.186 337.734 133.477 337.314 134.777L336.838 134.623C336.432 135.883 336.005 137.153 335.559 138.431L336.031 138.596C335.593 139.851 335.136 141.114 334.66 142.386L334.192 142.21C333.724 143.461 333.238 144.72 332.733 145.985L333.198 146.171C332.707 147.401 332.2 148.639 331.676 149.883L331.215 149.689C330.697 150.919 330.162 152.157 329.61 153.4L330.067 153.603C329.528 154.818 328.974 156.038 328.404 157.264L327.95 157.054C327.388 158.263 326.811 159.477 326.219 160.696L326.669 160.914C326.086 162.115 325.488 163.32 324.876 164.529L324.43 164.303C323.829 165.492 323.214 166.685 322.585 167.881L323.028 168.114C322.406 169.298 321.77 170.486 321.121 171.678L320.682 171.439C320.045 172.608 319.396 173.78 318.734 174.956L319.169 175.201C318.512 176.369 317.842 177.539 317.159 178.712L316.727 178.461C316.058 179.612 315.376 180.765 314.683 181.921L315.112 182.178C314.422 183.328 313.721 184.481 313.008 185.635L312.583 185.372C311.883 186.506 311.172 187.642 310.45 188.779L310.872 189.047C310.153 190.179 309.424 191.313 308.683 192.448L308.264 192.175C307.536 193.292 306.797 194.411 306.047 195.531L306.463 195.809C305.717 196.923 304.961 198.038 304.195 199.154L303.783 198.871C303.027 199.973 302.262 201.075 301.486 202.178L301.895 202.466C301.125 203.561 300.345 204.658 299.555 205.755L299.149 205.463C298.368 206.549 297.576 207.636 296.776 208.723L297.178 209.019C296.385 210.097 295.582 211.175 294.771 212.253L294.371 211.952C293.565 213.023 292.749 214.094 291.925 215.166L292.321 215.471C291.506 216.53 290.682 217.589 289.849 218.648L289.456 218.339C288.626 219.396 287.787 220.452 286.939 221.508L287.329 221.821C286.493 222.862 285.649 223.903 284.797 224.943L284.41 224.626C283.559 225.665 282.7 226.703 281.832 227.741L282.216 228.062C281.358 229.088 280.493 230.113 279.62 231.137L279.239 230.813C278.369 231.833 277.491 232.852 276.606 233.871L276.983 234.199C276.104 235.211 275.216 236.221 274.321 237.231L273.947 236.899C273.059 237.901 272.164 238.902 271.261 239.901L271.632 240.236C270.731 241.234 269.823 242.23 268.907 243.225L268.539 242.886C267.634 243.87 266.722 244.851 265.802 245.832L266.167 246.174C265.246 247.155 264.319 248.135 263.384 249.114L263.023 248.768C262.099 249.735 261.169 250.7 260.232 251.663L260.591 252.011Z" stroke="#1B1B1B" stroke-dasharray="4 4"/>
<path d="M299.36 279.328H264.072L159.351 190.557L158.728 190.029L158.541 190.825L137.798 279.328H100.64L139.974 121.3H260.026L299.36 279.328Z" stroke="black" stroke-opacity="0.4"/>
<path d="M299.36 279.528H264.072L159.351 190.757L158.728 190.229L158.541 191.025L137.798 279.528H100.64L139.974 121.5H260.026L299.36 279.528Z" fill="#1B1B1B" stroke="black"/>
<path d="M233.492 153H167L252 226L233.492 153Z" fill="#D7D9D6" stroke="black"/>
<defs>
<linearGradient id="paint0_linear_108_205" x1="200.556" y1="0.949219" x2="200.556" y2="50.7864" gradientUnits="userSpaceOnUse">
<stop stop-color="#1B1B1B"/>
<stop offset="1" stop-color="#1B1B1B" stop-opacity="0"/>
</linearGradient>
<linearGradient id="paint1_linear_108_205" x1="200.556" y1="349.81" x2="200.556" y2="399.647" gradientUnits="userSpaceOnUse">
<stop stop-color="#1B1B1B" stop-opacity="0"/>
<stop offset="1" stop-color="#27241D"/>
</linearGradient>
<linearGradient id="paint2_linear_108_205" x1="349.921" y1="199.444" x2="399.758" y2="199.444" gradientUnits="userSpaceOnUse">
<stop offset="0.0792716" stop-color="#1B1B1B" stop-opacity="0"/>
<stop offset="1" stop-color="#1B1B1B"/>
</linearGradient>
<linearGradient id="paint3_linear_108_205" x1="0" y1="199.444" x2="49.8371" y2="199.444" gradientUnits="userSpaceOnUse">
<stop stop-color="#1B1B1B"/>
<stop offset="1" stop-color="#1B1B1B" stop-opacity="0"/>
</linearGradient>
</defs>
</svg>
